<?xml version="1.0" standalone="no"?>
<!DOCTYPE svg PUBLIC "-//W3C//DTD SVG 20010904//EN"
 "http://www.w3.org/TR/2001/REC-SVG-20010904/DTD/svg10.dtd">
<svg version="1.0" xmlns="http://www.w3.org/2000/svg"
 width="490.000000pt" height="194.000000pt" viewBox="0 0 490.000000 194.000000"
 preserveAspectRatio="xMidYMid meet">

<g transform="translate(0.000000,194.000000) scale(0.100000,-0.100000)"
fill="#000000" stroke="none">
<path d="M986 1412 c-33 -37 -113 -122 -178 -190 -66 -67 -116 -127 -112 -133
4 -7 16 -1 33 15 15 14 32 26 39 26 9 0 12 -64 12 -255 l0 -255 -55 0 c-30 0
-55 -4 -55 -10 0 -7 482 -10 1425 -10 943 0 1425 3 1425 10 0 7 -460 10 -1360
10 l-1360 0 0 254 c0 140 -3 261 -6 270 -4 10 31 55 108 137 62 67 123 128
135 136 21 14 28 9 182 -148 88 -90 163 -161 166 -157 4 4 3 13 -2 21 -9 16
-330 348 -335 346 -2 0 -30 -31 -62 -67z"/>
<path d="M1175 1440 c-4 -7 11 -31 38 -58 239 -247 294 -302 305 -302 6 0 12
3 12 8 0 4 -79 87 -174 185 -110 112 -177 174 -181 167z"/>
<path d="M1310 1404 c0 -10 332 -354 341 -354 23 0 1 31 -84 119 -51 53 -124
129 -162 169 -59 62 -95 87 -95 66z"/>
<path d="M1620 870 c0 -85 3 -111 13 -107 17 5 17 209 0 215 -10 3 -13 -23
-13 -108z"/>
<path d="M3375 968 c-3 -7 -6 -49 -7 -93 -3 -80 -3 -80 -32 -83 -15 -2 -39 -1
-53 3 -21 5 -24 11 -21 43 3 35 5 37 41 40 53 5 51 32 -2 32 -52 0 -71 -20
-71 -75 0 -60 18 -75 89 -75 31 0 62 5 69 12 15 15 17 208 2 208 -6 0 -13 -6
-15 -12z"/>
<path d="M980 860 c0 -77 3 -101 13 -98 6 3 13 20 15 39 4 42 15 49 72 49 57
0 68 -7 72 -49 2 -19 9 -36 16 -39 9 -3 12 21 12 98 0 77 -3 101 -12 98 -7 -3
-14 -21 -16 -41 l-3 -37 -69 0 -69 0 -3 37 c-2 20 -9 38 -15 41 -10 3 -13 -21
-13 -98z"/>
<path d="M2610 859 c0 -76 3 -100 13 -97 6 3 13 21 15 41 4 42 20 50 93 45 43
-3 44 -4 49 -43 3 -27 10 -40 20 -40 12 0 15 17 15 95 0 82 -2 95 -17 98 -15
3 -18 -4 -18 -37 l0 -41 -70 0 -70 0 0 40 c0 29 -4 40 -15 40 -12 0 -15 -18
-15 -101z"/>
<path d="M1262 898 c3 -8 25 -14 52 -16 l47 -3 -3 -42 -3 -42 -48 -3 c-42 -3
-48 -1 -45 15 2 13 14 19 41 21 49 4 44 26 -7 30 -63 5 -99 -44 -58 -81 28
-26 128 -24 142 2 15 30 12 97 -6 115 -19 20 -118 23 -112 4z"/>
<path d="M1442 898 c-16 -16 -15 -43 1 -56 7 -6 30 -12 52 -14 28 -2 41 -8 43
-20 3 -14 -6 -17 -49 -20 -31 -2 -54 -8 -57 -15 -5 -17 119 -18 136 -1 35 35
-2 88 -61 88 -51 0 -47 18 5 22 23 2 43 9 46 16 5 16 -99 17 -116 0z"/>
<path d="M1675 900 c-7 -12 7 -18 50 -22 29 -3 30 -5 33 -61 2 -40 7 -57 15
-54 18 6 16 125 -3 137 -20 13 -87 13 -95 0z"/>
<path d="M1846 894 c-10 -9 -16 -33 -16 -59 0 -55 19 -75 72 -75 49 0 48 23
-3 30 -32 5 -34 8 -37 48 l-3 42 50 0 c44 0 51 -3 51 -20 0 -17 -7 -20 -40
-20 -22 0 -40 -4 -40 -10 0 -14 94 -12 108 2 17 17 15 44 -4 62 -10 11 -34 16
-69 16 -35 0 -59 -5 -69 -16z"/>
<path d="M2051 901 c-7 -5 -16 -31 -18 -58 -6 -62 11 -83 69 -83 49 0 48 23
-3 30 -32 5 -34 7 -34 45 0 39 1 40 39 43 48 4 67 -3 60 -23 -4 -10 -19 -15
-45 -15 -21 0 -39 -4 -39 -10 0 -14 94 -12 108 2 18 18 14 56 -7 68 -24 12
-111 13 -130 1z"/>
<path d="M2240 835 c0 -43 4 -75 10 -75 6 0 10 21 10 48 0 60 10 74 46 70 27
-3 29 -6 34 -57 7 -76 28 -79 32 -4 2 47 6 58 22 61 26 5 36 -15 36 -71 0 -70
24 -57 28 15 4 80 -7 88 -124 88 l-94 0 0 -75z"/>
<path d="M2897 904 c-14 -14 6 -24 48 -24 40 0 44 -2 50 -30 10 -44 -9 -62
-59 -58 -52 4 -57 31 -8 38 46 7 45 24 -1 28 -46 4 -67 -11 -67 -47 0 -40 18
-51 80 -51 31 0 61 5 68 12 7 7 12 35 12 63 0 28 -5 56 -12 63 -12 12 -100 17
-111 6z"/>
<path d="M3075 886 c-21 -32 -17 -121 5 -121 11 0 16 14 18 57 l3 57 46 3 c70
5 69 28 -1 28 -48 0 -58 -3 -71 -24z"/>
<path d="M3450 841 c0 -39 4 -72 8 -75 5 -3 26 13 47 34 22 22 43 40 47 40 4
0 8 -16 8 -35 0 -48 23 -55 61 -19 25 23 79 106 79 120 0 2 -6 4 -14 4 -8 0
-27 -20 -43 -45 -35 -56 -53 -58 -53 -6 0 55 -17 60 -57 17 -19 -20 -38 -36
-44 -36 -5 0 -9 16 -9 35 0 24 -5 35 -15 35 -12 0 -15 -14 -15 -69z"/>
<path d="M3752 898 c3 -7 24 -15 49 -18 44 -5 44 -5 44 -45 l0 -40 -44 -3
c-48 -4 -76 12 -51 28 8 5 27 10 43 10 18 0 27 5 27 16 0 12 -9 14 -42 12 -34
-2 -45 -8 -55 -28 -21 -42 3 -64 72 -68 73 -4 85 6 85 74 0 63 -13 74 -85 74
-33 0 -45 -4 -43 -12z"/>
<path d="M3936 891 c-13 -14 -16 -33 -14 -72 4 -63 28 -82 28 -22 0 72 7 82
58 85 68 4 68 28 -1 28 -40 0 -58 -5 -71 -19z"/>
<path d="M4100 895 c-18 -21 -18 -98 -1 -118 17 -21 105 -24 99 -4 -3 6 -20
14 -39 17 -32 5 -34 8 -37 48 l-3 42 51 0 c44 0 51 -3 48 -17 -2 -13 -14 -19
-41 -21 -54 -5 -45 -22 11 -22 42 0 51 4 62 25 12 22 11 27 -5 45 -23 26 -125
29 -145 5z"/>
</g>
</svg>
